<?xml version="1.0" standalone="no"?>
<!DOCTYPE svg PUBLIC "-//W3C//DTD SVG 20010904//EN"
 "http://www.w3.org/TR/2001/REC-SVG-20010904/DTD/svg10.dtd">
<svg version="1.0" xmlns="http://www.w3.org/2000/svg"
 width="337.000000pt" height="94.000000pt" viewBox="0 0 337.000000 94.000000"
 preserveAspectRatio="xMidYMid meet">

<g transform="translate(0.000000,94.000000) scale(0.100000,-0.100000)"
fill="#000000" stroke="none">
<path d="M223 796 c-79 -25 -155 -89 -138 -116 3 -6 29 -10 58 -10 28 0 102
-5 164 -11 99 -10 114 -9 128 5 21 20 59 21 79 0 14 -13 30 -14 123 -5 58 6
130 11 159 11 29 0 55 4 59 9 7 13 -51 78 -84 95 -14 7 -50 19 -78 26 -45 10
-60 10 -100 -4 -26 -9 -65 -30 -85 -47 l-38 -30 -41 34 c-37 32 -104 58 -146
56 -10 0 -37 -6 -60 -13z"/>
<path d="M1172 637 c-38 -18 -77 -109 -55 -131 4 -3 6 -49 4 -101 l-3 -95 36
0 36 0 0 99 c0 79 3 100 15 105 8 3 15 15 15 26 0 11 -7 20 -15 20 -22 0 -18
18 5 25 14 4 20 15 20 36 0 32 -16 37 -58 16z"/>
<path d="M1540 490 c0 -158 0 -160 24 -176 14 -8 35 -14 48 -12 31 4 37 43 9
58 -20 10 -21 20 -21 150 l0 140 -30 0 -30 0 0 -160z"/>
<path d="M1680 635 c-18 -21 -5 -47 22 -43 26 3 37 36 16 49 -18 12 -24 11
-38 -6z"/>
<path d="M2104 636 c-3 -9 -4 -67 -2 -129 3 -88 7 -118 22 -140 63 -94 218
-73 246 34 27 98 -41 176 -145 167 l-54 -5 -3 41 c-3 36 -6 41 -31 44 -18 2
-29 -2 -33 -12z m186 -146 c43 -43 11 -120 -50 -120 -38 0 -70 32 -70 70 0 38
32 70 70 70 17 0 39 -9 50 -20z"/>
<path d="M2695 638 c-3 -8 -4 -86 -3 -173 l3 -160 30 0 30 0 5 93 c5 97 12
112 56 112 39 0 53 -29 56 -120 l3 -85 30 0 30 0 3 70 c4 89 -10 136 -50 170
-26 22 -39 26 -79 23 l-48 -3 -3 40 c-3 35 -6 40 -31 43 -16 2 -29 -2 -32 -10z"/>
<path d="M2970 635 c-18 -21 -5 -47 22 -43 26 3 37 36 16 49 -18 12 -24 11
-38 -6z"/>
<path d="M450 615 c0 -18 5 -25 20 -25 15 0 20 7 20 25 0 18 -5 25 -20 25 -15
0 -20 -7 -20 -25z"/>
<path d="M265 600 c-66 -10 -139 -21 -162 -25 -23 -3 -44 -13 -47 -21 -8 -21
19 -135 43 -182 31 -60 106 -147 171 -197 70 -54 60 -71 90 155 11 85 23 165
25 178 4 15 1 22 -10 22 -8 0 -15 9 -15 20 0 16 7 20 30 20 25 0 30 4 30 25 0
29 7 29 -155 5z"/>
<path d="M530 595 c0 -20 5 -25 25 -25 18 0 25 -5 25 -20 0 -15 -7 -20 -27
-20 -18 0 -23 -3 -16 -8 7 -4 14 -26 16 -48 2 -23 6 -45 10 -50 3 -5 4 -28 4
-52 -1 -23 1 -42 4 -42 4 0 9 -11 11 -25 3 -14 1 -25 -5 -25 -6 0 -5 -5 1 -13
6 -7 14 -39 18 -70 4 -32 10 -59 13 -61 4 -3 36 20 71 49 123 99 199 227 200
333 0 28 -2 52 -4 52 -8 0 -278 39 -313 45 -30 5 -33 4 -33 -20z"/>
<path d="M1315 560 c-11 -4 -31 -20 -45 -35 -21 -22 -25 -36 -25 -87 0 -56 2
-62 37 -94 33 -30 44 -34 92 -34 60 0 96 21 121 70 32 61 5 147 -55 177 -28
14 -95 16 -125 3z m114 -76 c12 -15 21 -34 21 -44 0 -34 -39 -70 -75 -70 -36
0 -75 36 -75 70 0 34 39 70 75 70 24 0 39 -7 54 -26z"/>
<path d="M1672 438 l3 -133 28 -3 27 -3 0 135 0 136 -30 0 -31 0 3 -132z"/>
<path d="M1816 549 c-118 -93 -28 -278 117 -238 29 8 43 6 67 -6 l30 -16 0 91
c0 104 -13 140 -63 170 -44 27 -116 27 -151 -1z m129 -64 c30 -30 31 -54 4
-89 -28 -36 -80 -36 -108 0 -12 15 -21 35 -21 46 0 27 45 68 75 68 14 0 37
-11 50 -25z"/>
<path d="M2439 531 c-34 -34 -39 -44 -39 -85 0 -54 21 -100 51 -117 43 -23 83
-29 121 -19 30 9 44 7 68 -5 l30 -16 0 86 c0 52 -6 99 -14 120 -20 47 -69 75
-130 75 -43 0 -53 -4 -87 -39z m141 -41 c24 -24 26 -77 3 -102 -38 -42 -123
-9 -123 49 0 61 78 95 120 53z"/>
<path d="M2960 435 l0 -135 30 0 30 0 0 135 0 135 -30 0 -30 0 0 -135z"/>
<path d="M3104 550 c-54 -35 -72 -105 -43 -169 25 -57 91 -87 153 -70 26 7 44
6 71 -5 l35 -15 0 85 c0 98 -22 154 -70 179 -41 21 -109 19 -146 -5z m126 -60
c43 -43 11 -120 -50 -120 -38 0 -70 32 -70 70 0 38 32 70 70 70 17 0 39 -9 50
-20z"/>
<path d="M432 438 c-14 -14 -16 -48 -4 -48 5 0 14 11 20 24 6 14 21 26 34 29
18 3 17 5 -7 6 -17 0 -36 -4 -43 -11z"/>
<path d="M428 239 c-23 -13 -25 -79 -3 -79 10 0 15 10 15 29 0 20 8 35 22 45
21 15 21 16 3 16 -11 0 -28 -5 -37 -11z"/>
</g>
</svg>
